<?xml version="1.0" encoding="utf-8"?>
<!-- Generator: Adobe Illustrator 26.0.1, SVG Export Plug-In . SVG Version: 6.00 Build 0)  -->
<svg version="1.1" xmlns="http://www.w3.org/2000/svg" xmlns:xlink="http://www.w3.org/1999/xlink" x="0px" y="0px"
	 viewBox="0 0 1440 74.1" style="enable-background:new 0 0 1440 74.1;" xml:space="preserve">
<style type="text/css">
	.st0{fill:url(#SVGID_1_);}
</style>
<g id="Layer_2">
</g>
<g id="Layer_3">
	<g id="Layer_1">
		<linearGradient id="SVGID_1_" gradientUnits="userSpaceOnUse" x1="0" y1="40.837" x2="1440" y2="40.837">
			<stop  offset="0" style="stop-color:#E0E0E0"/>
			<stop  offset="0.495" style="stop-color:#8DD7D1"/>
			<stop  offset="1" style="stop-color:#E0E0E0"/>
		</linearGradient>
		<path class="st0" d="M1440,6.5L1418.2,8c-21.8,1.5-65.2,4.2-109.2,15.7c-43.5,11.5-87,31.3-131,30c-43.5-1.3-87-24.4-131-28.6
			c-43.4-4.4-87,10.1-131,10c-43.3,0.1-87-14.4-131-12.9c-43.2,1.4-87,18.6-130,28.6c-44.1,10.1-88,12.8-131,5.7
			c-44-7.2-88-24.3-131-28.6c-43.9-4.3-88,4.3-131,10c-43.8,5.8-87,8.5-131,7.2c-43.7-1.3-87-7.2-109-10L0,32.3v42.9h21.8
			c21.8,0,65.2,0,109.2,0c43.5,0,87,0,131,0c43.5,0,87,0,131,0c43.4,0,87,0,131,0c43.3,0,87,0,131,0c43.2,0,87,0,130,0
			c44.1,0,88,0,131,0c44,0,88,0,131,0c43.9,0,88,0,131,0c43.8,0,87,0,131,0c43.7,0,87,0,109,0h22V6.5z"/>
	</g>
</g>
</svg>
